<svg width="90" height="92" viewBox="0 0 90 92" fill="none" xmlns="http://www.w3.org/2000/svg">
<rect width="90" height="92" rx="11" fill="#CDDEFF"/>
<path fill-rule="evenodd" clip-rule="evenodd" d="M44.7993 22.0604C44.6603 22.0983 44.4909 22.1528 44.4231 22.1814C44.2096 22.2716 25.1378 33.0731 24.9597 33.2048C24.6871 33.4062 24.401 33.7535 24.249 34.0672C23.9778 34.6271 24.0005 33.541 24.0005 45.9613V57.1342L24.0746 57.4044C24.2293 57.9686 24.5845 58.4654 25.0656 58.7906C25.2976 58.9473 43.8683 69.4876 44.3556 69.7391C44.7438 69.9394 45.1174 70.0166 45.6051 69.9971C45.9297 69.9841 46.0801 69.9596 46.2982 69.8842C46.4949 69.8162 49.3871 68.1951 56.1343 64.3711C61.3909 61.3919 65.801 58.8806 65.9345 58.7904C66.4235 58.4602 66.7861 57.9466 66.929 57.3822C66.9986 57.1073 66.9997 56.932 66.9997 46.0087C66.9997 33.7029 67.0189 34.675 66.765 34.1396C66.6263 33.8473 66.2281 33.3603 65.974 33.1723C65.8779 33.1013 61.4859 30.6097 56.214 27.6355C49.1173 23.6318 46.5497 22.2002 46.3242 22.1212C46.0566 22.0275 45.9609 22.0132 45.5359 22.003C45.146 21.9936 45.0031 22.0047 44.7993 22.0604ZM46.3555 30.0311C48.559 30.1601 50.5023 30.6721 52.4695 31.6418C55.0532 32.9155 57.2827 34.9304 58.8565 37.4141C59.066 37.7449 59.1095 37.8366 59.0728 37.8706C59.0237 37.916 52.3962 41.7438 52.3062 41.7787C52.2692 41.7931 52.204 41.7244 52.0936 41.5549C51.8266 41.1443 51.4057 40.6406 50.9959 40.241C49.8182 39.0923 48.3887 38.366 46.7537 38.0856C46.2863 38.0054 45.2162 37.9756 44.7139 38.0287C42.3129 38.2828 40.208 39.5783 38.8545 41.635C38.3871 42.3453 37.9507 43.389 37.7632 44.2446C37.5791 45.085 37.5289 46.1721 37.6362 46.9987C37.9856 49.6922 39.6122 51.9956 42.0064 53.1872C43.0978 53.7304 44.2602 54.0006 45.5058 54.0006C46.42 54.0006 47.164 53.8782 48.0372 53.5842C49.6596 53.038 51.1009 51.927 52.0767 50.4701C52.2101 50.271 52.3395 50.1081 52.3642 50.1081C52.389 50.1081 53.9494 50.9635 55.8319 52.0091L59.2545 53.9101L59.1629 54.073C59.1126 54.1626 58.918 54.4722 58.7305 54.761C56.7609 57.7949 53.8673 60.0419 50.4672 61.1776C45.5804 62.8098 40.2184 61.9401 36.0787 58.8436C34.9307 57.9849 33.746 56.8003 32.8813 55.6463C30.3618 52.284 29.257 48.0598 29.8072 43.8927C30.1403 41.3698 31.0815 38.9167 32.5004 36.8735C33.5441 35.3704 34.9279 33.9672 36.4241 32.8944C37.4549 32.1554 38.9956 31.3481 40.1431 30.9459C42.2558 30.2053 44.2682 29.909 46.3555 30.0311Z" fill="#2A60C8"/>
</svg>
