<svg width="90" height="92" viewBox="0 0 90 92" fill="none" xmlns="http://www.w3.org/2000/svg">
<rect width="90" height="92" rx="11" fill="#FFDADA"/>
<path d="M68.1133 45.4062L47.5928 24.8865C46.4116 23.7044 44.4948 23.7044 43.312 24.8865L39.0513 29.148L44.4563 34.5533C45.7127 34.1291 47.1532 34.4138 48.1542 35.415C49.1612 36.4224 49.4433 37.8754 49.0083 39.1361L54.2182 44.3453C55.4789 43.9107 56.9325 44.1916 57.9395 45.2001C59.3461 46.6062 59.3461 48.8858 57.9395 50.2932C56.5319 51.7006 54.2528 51.7006 52.8445 50.2932C51.7866 49.2342 51.5249 47.6796 52.0613 46.3761L47.2022 41.5173V54.303C47.5448 54.4728 47.8685 54.699 48.1542 54.9839C49.5608 56.3903 49.5608 58.6696 48.1542 60.0782C46.7476 61.4842 44.4669 61.4842 43.0613 60.0782C41.6547 58.6696 41.6547 56.3903 43.0613 54.9839C43.409 54.6366 43.8115 54.3739 44.2411 54.1981V41.2942C43.8115 41.1183 43.4099 40.8578 43.0613 40.5081C41.996 39.4432 41.7396 37.8793 42.2861 36.5708L36.9574 31.2414L22.8864 45.3111C21.7045 46.4942 21.7045 48.4109 22.8864 49.5929L43.4079 70.1127C44.5894 71.2945 46.5055 71.2945 47.6887 70.1127L68.1133 49.688C69.2956 48.5058 69.2956 46.5881 68.1133 45.4062Z" fill="#FF7065"/>
</svg>
