<svg width="90" height="92" viewBox="0 0 90 92" fill="none" xmlns="http://www.w3.org/2000/svg">
<rect width="90" height="92" rx="11" fill="#FFD8CF"/>
<g clip-path="url(#clip0_65_734)">
<path d="M23.1482 22.6552L26.3933 64.1704C26.442 64.7938 26.864 65.3254 27.4601 65.5144L44.5359 70.9283C44.8378 71.024 45.162 71.024 45.464 70.9283L62.5398 65.5144C63.1359 65.3254 63.5579 64.7938 63.6066 64.1704L66.8517 22.6552C66.9215 21.7626 66.2161 21 65.3209 21H24.6791C23.7839 21 23.0785 21.7626 23.1482 22.6552ZM58.5299 35.536H37.3809L38.0192 41.4217H58.0699L56.7582 58.2009L45 61.9288L33.2418 58.2009L32.5565 49.4347H38.7282V53.7347L45.1649 55.4622L51.5632 53.7347L52.0596 46.8818H32.3569L31.0488 30.1466H58.951L58.5299 35.536Z" fill="#F16C3D"/>
</g>
<defs>
<clipPath id="clip0_65_734">
<rect width="50" height="50" fill="white" transform="translate(20 21)"/>
</clipPath>
</defs>
</svg>
