<svg width="90" height="92" viewBox="0 0 90 92" fill="none" xmlns="http://www.w3.org/2000/svg">
<rect width="90" height="92" rx="11" fill="#FFE9DF"/>
<path fill-rule="evenodd" clip-rule="evenodd" d="M50.6269 21.2426C50.1113 22.6639 49.3629 24.2904 48.9204 24.9516C47.5483 27.0015 45.2911 29.7314 42.2796 32.9831C37.5647 38.0737 37.1518 39.6114 39.61 42.9242C41.1436 44.9908 43.9046 47.8831 44.344 47.8831C44.6704 47.8831 44.1272 46.6349 42.956 44.6932C41.2906 41.9323 40.8039 40.2126 41.2198 38.5574C41.6161 36.9796 42.5428 35.8259 45.3027 33.4746C47.7232 31.4123 49.7497 28.4992 50.5954 25.8656C50.8448 25.0894 50.8989 24.6077 50.9204 22.9721C50.9438 21.1772 50.8505 20.6264 50.6269 21.2426ZM52.487 31.7046C50.6927 32.3106 49.8126 32.7306 48.5542 33.5813C46.0214 35.2938 44.6224 37.8173 44.8866 40.1972C45.0176 41.3771 45.3058 42.2321 46.1322 43.892C47.2254 46.0878 47.5402 47.341 47.1734 48.0373C46.9655 48.4321 47.1334 48.9293 47.5069 49.0245C48.343 49.2378 49.3641 48.4422 49.8155 47.2262C50.351 45.7834 50.1266 43.943 49.208 42.2449C48.5204 40.9737 48.101 39.5951 48.101 38.6056C48.101 36.9727 49.1075 35.5755 51.5706 33.789C55.0652 31.2543 55.2822 30.7607 52.487 31.7046ZM35.0411 48.1398C33.3286 48.6375 30.4262 50.359 30.4262 50.8771C30.4262 51.331 31.4598 51.783 34.0921 52.4805C35.9238 52.966 40.5416 52.9611 46.2026 52.4675C51.3403 52.0197 54.5774 51.2617 53.1182 50.8481C52.7023 50.7302 45.2678 50.7093 39.5255 50.8099C35.8338 50.8745 35.0085 50.8235 35.0085 50.5301C35.0085 50.4521 35.3961 50.0216 35.8698 49.5732C36.8812 48.6159 37.0557 48.3449 36.8346 48.0741C36.6308 47.8247 36.0528 47.8458 35.0411 48.1398ZM57.7496 48.1093C57.3397 48.2171 57.5857 48.4637 58.3262 48.687C59.7488 49.1162 60.2159 49.7399 60.1204 51.0826C60.0436 52.1594 59.4462 53.2812 58.0995 54.8769C56.4168 56.871 56.145 57.6051 57.1613 57.4114C58.3682 57.1814 62.0365 53.9941 62.714 52.587C63.0408 51.9084 63.0558 51.8053 62.9172 51.1946C62.6151 49.8652 61.5668 48.6614 60.3166 48.2082C59.844 48.0369 58.2565 47.9757 57.7496 48.1093ZM34.6427 54.5508C34.0089 54.789 34.4308 55.9284 35.4297 56.676C36.8651 57.7504 38.5148 58.1247 41.8166 58.1254C46.525 58.1263 51.6956 57.2861 52.4932 56.3905C52.7042 56.1535 52.7091 56.1005 52.5363 55.9248C52.1766 55.5594 50.815 55.4677 45.7344 55.4669C40.3454 55.4661 38.4474 55.3493 36.776 54.9159C36.2 54.7665 35.5493 54.5989 35.3301 54.5433C35.1109 54.4877 34.8015 54.4911 34.6427 54.5508ZM37.7337 60.3893C35.725 60.5738 35.2379 61.0002 36.0698 61.8455C36.7841 62.5713 37.9716 63.0501 39.9016 63.3904C44.3549 64.1755 50.4343 63.6173 51.726 62.3046C52.4551 61.5638 51.9334 61.2105 49.6005 60.8651C46.5314 60.411 40.2423 60.1587 37.7337 60.3893ZM30.5571 63.1281C30.017 63.3142 29.0449 63.7237 28.3968 64.0383C24.5603 65.9004 25.2561 66.906 31.0153 67.8232C35.4193 68.5245 39.5677 68.7913 43.5144 68.6266C52.8343 68.238 60.5892 66.366 60.3848 64.5542C60.3215 63.9929 59.8741 63.9969 59.0576 64.5662C57.8319 65.421 54.5252 66.0342 48.5593 66.5133C45.6147 66.7498 38.9363 66.8282 36.7875 66.6515C34.83 66.4906 31.7224 65.9886 31.0481 65.7245C30.4787 65.5014 30.5934 65.1347 31.4408 64.4687C32.4529 63.6733 32.8327 63.2401 32.738 62.9895C32.6201 62.677 31.6965 62.7358 30.5571 63.1281ZM59.8664 67.6403C59.3884 67.737 58.5635 67.9393 58.0334 68.0897C55.5102 68.8057 51.1938 69.2501 44.9588 69.4358C38.4561 69.6295 36.0305 69.8642 36.0305 70.2996C36.0305 71.2918 47.5914 71.2133 55.3019 70.1687C58.2693 69.7667 59.4367 69.4718 60.8623 68.764C62.0511 68.1739 62.3124 67.9536 62.1942 67.6407C62.0992 67.3887 61.1098 67.3886 59.8664 67.6403Z" fill="#FF8249"/>
</svg>
