<svg width="90" height="92" viewBox="0 0 90 92" fill="none" xmlns="http://www.w3.org/2000/svg">
<rect width="90" height="92" rx="11" fill="#FFEFB8"/>
<path d="M62 21C66.4183 21 70 24.5817 70 29V63C70 67.4183 66.4183 71 62 71H28C23.5817 71 20 67.4183 20 63V29C20 24.5817 23.5817 21 28 21H62ZM40.8633 57.7207C40.8633 59.7697 39.0741 60.8389 37.2852 60.4824C35.4964 60.1259 34.6914 57.9883 34.6914 57.9883L30.5771 60.75C30.5771 60.75 31.4713 64.8486 37.1064 65.2051C42.7416 65.5614 45.9619 62.1752 45.9619 59.3242V40.6152H40.8633C40.8633 40.6152 40.8633 55.6703 40.8633 57.7207ZM57.2363 40.0615C50.9706 39.6174 49.1808 45.6612 50.5234 49.9277C51.8661 54.1943 60.5488 55.0835 60.5488 57.5723C60.5488 59.6166 59.4746 60.5049 56.7891 60.5049C54.1201 60.5048 52.6892 57.5197 52.6719 57.4834L48.4619 59.9951C49.7445 62.1564 52.3252 65.0381 56.9688 65.0381C64.3981 65.0379 65.651 61.2162 66.0986 58.2832C66.5462 55.3501 64.2187 52.0608 60.459 50.8164C56.6996 49.5719 54.283 48.3275 54.999 46.1943C55.7153 44.0615 59.3852 44.0621 60.2803 46.6396L64.457 43.6426C63.3555 42.2495 61.1528 40.3393 57.2363 40.0615Z" fill="#DCB943"/>
</svg>
