<svg width="90" height="92" viewBox="0 0 90 92" fill="none" xmlns="http://www.w3.org/2000/svg">
<rect width="90" height="92" rx="11" fill="#FFF6DF"/>
<path fill-rule="evenodd" clip-rule="evenodd" d="M40.2972 12.7504C36.2963 14.8709 35.7588 16.2224 35.4152 25.0317C35.1027 33.0439 34.9604 33.5108 31.4324 38.122C27.5077 43.2518 24.7436 49.5479 24.7045 53.447C24.6841 55.4934 23.2501 57.3298 20.9226 58.2914C19.9843 58.679 19.0195 59.3808 18.7782 59.8514C18.0548 61.263 17.7098 68.2759 18.2998 69.5747C18.8322 70.7471 20.9914 71.6485 23.3264 71.6737C23.9657 71.6802 25.9534 72.2053 27.7434 72.84C32.0647 74.372 35.3515 74.3841 37.1406 72.8741C37.9269 72.2105 39.5751 71.5455 41.1648 71.2507C43.9382 70.7368 50.7586 71.0553 50.7586 71.6989C50.7586 71.898 51.4026 72.7067 52.1893 73.4957C54.7303 76.0443 58.1058 75.3597 62.5075 71.4023C63.7276 70.3059 65.6734 68.9484 66.8325 68.386C70.3499 66.6777 70.8302 65.1854 68.8062 62.2535C68.3311 61.5652 67.6299 60.1144 67.2487 59.0292C66.8669 57.9445 66.3141 56.7665 66.0203 56.4111C65.7162 56.0437 65.4688 54.0169 65.4456 51.7076C65.4079 47.9819 65.2596 47.358 63.6346 44.0935C62.661 42.1377 60.7086 39.1326 59.2961 37.415C55.7773 33.1363 54.966 31.1781 54.9534 26.9353C54.9218 16.2541 52.0554 11.9763 44.9467 12.0001C42.8916 12.0071 41.1778 12.2836 40.2972 12.7504ZM48.2934 21.5345C49.526 22.4005 50.0217 24.4623 49.3945 26.1164C48.698 27.9538 48.0419 27.6353 47.8792 25.3814C47.7611 23.7441 47.5574 23.3738 46.7066 23.2526C45.9296 23.1416 45.6037 23.3995 45.3777 24.3018C44.9997 25.8133 43.7843 25.8841 43.7843 24.3951C43.7843 23.0138 45.4493 20.8346 46.5043 20.8346C46.9404 20.8346 47.7453 21.1498 48.2934 21.5345ZM40.2707 22.3376C41.0806 23.4974 41.2448 25.498 40.5297 25.498C40.2739 25.498 40.0647 25.2089 40.0647 24.8554C40.0647 24.5024 39.7788 23.9749 39.4291 23.6839C38.4197 22.8436 37.5902 24.2053 37.9803 26.0618C38.2472 27.3326 38.1965 27.494 37.6832 27.001C36.7138 26.0688 36.8937 22.734 37.9557 21.9552C39.1511 21.0785 39.4231 21.1232 40.2707 22.3376ZM46.2393 27.1433C49.4628 28.6235 50.0807 29.3034 49.3163 30.5303C48.5826 31.7088 44.1358 33.8922 42.4694 33.8922C40.7338 33.8922 36.81 30.9636 36.81 29.6685C36.81 29.4951 37.786 28.5908 38.9786 27.6591C41.5646 25.6384 42.7745 25.5521 46.2393 27.1433ZM46.1854 30.3489C43.4175 32.3323 40.7147 32.3594 38.7005 30.424C37.9166 29.6709 37.275 29.2927 37.275 29.5841C37.275 30.646 40.3409 32.4932 42.1031 32.4932C43.9271 32.4932 46.9251 31.1898 47.9498 29.9511C49.0016 28.6804 48.2893 28.8408 46.1854 30.3489ZM54.4206 43.1814C55.4681 45.3406 56.4571 47.8122 56.6184 48.6735C56.7793 49.5349 57.3084 50.4526 57.7938 50.7133C58.8414 51.2757 59.0232 50.926 59.264 47.8826C59.404 46.1189 59.443 46.2439 59.5114 48.6675C59.5779 51.0155 59.7518 51.6012 60.4492 51.8232C60.9202 51.9729 61.8092 52.6594 62.4252 53.3477L63.5448 54.5999L62.0203 53.3584C59.5197 51.3224 56.2107 51.0803 55.549 52.8851C55.3821 53.3398 54.9683 53.8798 54.6294 54.085C53.4698 54.7869 52.7161 56.9777 52.2125 61.1138C51.935 63.3891 51.4784 65.5291 51.1971 65.8691C50.2914 66.9636 46.4155 68.1523 43.7523 68.1528C40.8565 68.1533 37.779 66.9869 36.8844 65.5501C36.3902 64.7564 36.4502 64.5022 37.2908 63.8195C39.1594 62.3015 37.4219 59.6951 31.5579 55.2206C29.9162 53.968 28.5659 50.9418 29.0481 49.5969C29.156 49.2952 29.488 49.9317 29.7851 51.0108C30.5759 53.8803 31.0725 53.8145 31.6072 50.7679C31.8685 49.2802 33.0444 45.916 34.2198 43.2924C35.3956 40.6687 36.7263 37.1725 37.1769 35.523L37.9957 32.524L39.3789 33.6577C41.2964 35.2292 43.4087 35.1262 46.8065 33.2962L49.5962 31.7937L51.0562 35.5244C51.8587 37.5764 53.3731 41.0222 54.4206 43.1814ZM29.6786 48.4655C29.5498 48.7864 29.4442 48.5238 29.4442 47.8826C29.4442 47.2414 29.5498 46.9793 29.6786 47.2997C29.8078 47.6205 29.8078 48.1452 29.6786 48.4655ZM29.355 56.261C29.8576 56.7651 30.7787 58.1819 31.4017 59.4088C32.0247 60.6358 33.6009 63.085 34.9047 64.8515C37.772 68.7367 38.1268 70.6603 36.2674 72.2492C34.9707 73.3572 31.537 73.2901 28.9342 72.106C27.7992 71.5893 25.3931 70.9275 23.5872 70.6356C21.7818 70.3432 20.0471 69.8755 19.7328 69.5961C19.3097 69.2198 19.2497 67.9397 19.5003 64.6669L19.8392 60.2459L21.5559 59.4363C22.4997 58.991 23.8597 57.8881 24.578 56.9857C26.0915 55.083 27.9062 54.8078 29.355 56.261ZM58.3508 58.5251C59.0613 58.6076 60.3669 58.2425 61.2684 57.709C62.1663 57.1778 63.2747 56.7432 63.7318 56.7432C64.8109 56.7432 65.8919 58.0149 66.3085 59.7744C66.4903 60.5439 67.1464 61.8413 67.7657 62.6578C69.5381 64.9942 69.2689 65.8141 66.1867 67.4617C64.6993 68.2568 62.462 69.8466 61.2154 70.9947C58.4778 73.5158 56.0693 74.386 54.0979 73.5666C51.7457 72.5896 51.1376 70.0858 52.3883 66.5294C52.7733 65.4354 53.2894 62.7632 53.5358 60.591C54.0989 55.6202 54.6628 54.7869 56.0554 56.8668C56.7086 57.8424 57.5195 58.4281 58.3508 58.5251Z" fill="#E2B71C"/>
</svg>
