<svg width="90" height="92" viewBox="0 0 90 92" fill="none" xmlns="http://www.w3.org/2000/svg">
<rect width="90" height="92" rx="11" fill="#BEE2F5"/>
<path d="M31.7144 63.3324V51.5051C32.3452 51.5666 33.0892 51.5986 33.9012 51.5986C38.85 51.5986 42.8513 50.2932 45.4739 47.822C47.6222 45.7811 48.8059 42.7404 48.8059 39.2605C48.8059 35.8806 47.3923 32.8245 44.93 30.8774C42.5094 28.9413 38.9524 28 34.0556 28C29.8138 28 26.2294 28.244 23.4011 28.7255C23.1694 28.7646 23 28.9654 23 29.2004V63.3324C23 63.5986 23.2157 63.8143 23.4819 63.8143H31.2325C31.4987 63.8143 31.7144 63.5986 31.7144 63.3324ZM31.7144 44.5086V35.077C32.1876 34.9863 33.0763 34.8662 34.4658 34.8662C38.0413 34.8662 40.0919 36.5427 40.0919 39.4656C40.0919 42.699 37.7587 44.6297 33.8499 44.6297C32.9123 44.6297 32.2444 44.5927 31.7144 44.5086Z" fill="#4B8BC6"/>
<path d="M62.8511 47.531C59.6577 46.4135 59.119 45.8813 59.119 45.1115C59.119 43.7444 60.682 43.5403 61.614 43.5403C63.5931 43.5403 65.6576 44.2827 66.824 44.9184C66.9547 44.9895 67.11 44.9965 67.2467 44.9373C67.3826 44.8779 67.4842 44.7592 67.5212 44.6154L68.9072 39.2266C68.9636 39.0067 68.859 38.7771 68.656 38.6757C67.2172 37.9564 64.5445 37.1876 61.3571 37.1876C55.0595 37.1876 50.6612 40.7627 50.6612 45.8734C50.6186 48.3669 51.8787 51.7807 58.1251 53.8833C61.1592 54.8948 61.4913 55.4205 61.4913 56.3007C61.4913 56.702 61.4913 57.9232 58.637 57.9232C56.4987 57.9232 53.6118 56.9736 52.1632 56.0939C52.0318 56.0143 51.871 56.0018 51.7291 56.0604C51.5877 56.1188 51.4822 56.2411 51.4452 56.3899L50.0596 61.9848C50.0068 62.1982 50.1051 62.42 50.2982 62.5245C52.418 63.6701 55.4575 64.3274 58.637 64.3274C65.646 64.3274 70 61.0354 70 55.7296C69.9445 51.7416 67.7388 49.2129 62.8511 47.531Z" fill="#4B8BC6"/>
</svg>
