<svg width="90" height="92" viewBox="0 0 90 92" fill="none" xmlns="http://www.w3.org/2000/svg">
<rect width="90" height="92" rx="11" fill="#D8D8D8"/>
<path d="M69.6584 45.3868L67.5594 44.0874C67.5417 43.8834 67.5217 43.6797 67.4996 43.4761L69.3035 41.7935C69.3937 41.7097 69.4609 41.6042 69.4987 41.487C69.5365 41.3698 69.5436 41.2449 69.5193 41.1242C69.4956 41.0034 69.4414 40.8907 69.3617 40.7969C69.282 40.7031 69.1796 40.6312 69.0643 40.5883L66.7582 39.726C66.7003 39.5269 66.6401 39.3284 66.5775 39.1307L68.016 37.1329C68.0881 37.033 68.1334 36.9164 68.1477 36.7941C68.162 36.6717 68.1447 36.5478 68.0976 36.434C68.0505 36.3202 67.9751 36.2204 67.8785 36.144C67.782 36.0675 67.6675 36.0171 67.5459 35.9973L65.1143 35.6018C65.0197 35.4175 64.9213 35.2358 64.8221 35.0558L65.8438 32.813C65.8952 32.7011 65.917 32.5779 65.9072 32.4551C65.8973 32.3323 65.8561 32.2142 65.7875 32.1119C65.7194 32.0093 65.6261 31.9259 65.5165 31.8697C65.4069 31.8136 65.2848 31.7865 65.1617 31.7912L62.6937 31.8771C62.5663 31.7175 62.4363 31.5598 62.3039 31.4043L62.8711 29.0004C62.8995 28.8805 62.8967 28.7554 62.8629 28.6369C62.8292 28.5184 62.7657 28.4105 62.6785 28.3235C62.5915 28.2364 62.4837 28.173 62.3653 28.1393C62.2468 28.1056 62.1218 28.1027 62.002 28.1309L59.5986 28.6975C59.4426 28.5652 59.2847 28.4353 59.1248 28.3077L59.2111 25.8399C59.2158 25.7169 59.1887 25.5947 59.1327 25.4852C59.0766 25.3756 58.9933 25.2822 58.8908 25.214C58.7885 25.1455 58.6703 25.1043 58.5476 25.0944C58.4249 25.0845 58.3016 25.1061 58.1897 25.1573L55.9475 26.1796C55.7666 26.0797 55.5846 25.9821 55.4014 25.8866L55.0049 23.4546C54.985 23.3332 54.9345 23.2188 54.8581 23.1224C54.7817 23.0259 54.6819 22.9506 54.5682 22.9035C54.4545 22.8564 54.3307 22.8392 54.2084 22.8533C54.0862 22.8675 53.9696 22.9127 53.8697 22.9845L51.8705 24.423C51.6738 24.3605 51.476 24.3001 51.2764 24.2429L50.4141 21.9365C50.3712 21.8209 50.2994 21.7183 50.2055 21.6385C50.1116 21.5586 49.9989 21.5041 49.8779 21.4802C49.7573 21.4565 49.6326 21.4639 49.5156 21.5017C49.3986 21.5395 49.2931 21.6064 49.2092 21.6963L47.5266 23.5015C47.3231 23.4787 47.1193 23.4588 46.9152 23.4417L45.6158 21.3422C45.5511 21.2375 45.4607 21.1512 45.3532 21.0913C45.2457 21.0314 45.1247 21 45.0017 21C44.8786 21 44.7576 21.0314 44.6501 21.0913C44.5427 21.1512 44.4522 21.2375 44.3875 21.3422L43.0881 23.4417C42.8838 23.4587 42.6798 23.4787 42.4762 23.5015L40.7932 21.6963C40.7093 21.6061 40.6037 21.5389 40.4865 21.5011C40.3694 21.4632 40.2444 21.456 40.1237 21.4801C40.0029 21.5042 39.8903 21.5587 39.7966 21.6386C39.7029 21.7185 39.6312 21.8211 39.5883 21.9365L38.7262 24.2429C38.5264 24.3001 38.3287 24.3609 38.1314 24.423L36.1326 22.9845C36.0328 22.9123 35.9161 22.867 35.7937 22.8528C35.6713 22.8386 35.5473 22.856 35.4336 22.9035C35.32 22.9506 35.2203 23.026 35.1439 23.1225C35.0675 23.2189 35.017 23.3332 34.9971 23.4546L34.6006 25.8866C34.417 25.9817 34.2355 26.0796 34.0545 26.1796L31.8121 25.1571C31.7002 25.1059 31.577 25.0842 31.4543 25.0942C31.3316 25.1041 31.2135 25.1454 31.1113 25.214C31.0088 25.2821 30.9254 25.3755 30.8693 25.4851C30.8131 25.5947 30.786 25.7169 30.7906 25.8399L30.8766 28.3077C30.7169 28.4355 30.5589 28.5654 30.4027 28.6975L27.9994 28.1311C27.8795 28.103 27.7545 28.1059 27.636 28.1396C27.5176 28.1732 27.4097 28.2365 27.3225 28.3235C27.2352 28.4105 27.1717 28.5184 27.138 28.6369C27.1043 28.7554 27.1015 28.8805 27.1299 29.0004L27.6961 31.4043C27.5646 31.5599 27.4348 31.7175 27.3072 31.8771L24.8393 31.7912C24.7164 31.7873 24.5945 31.8147 24.485 31.8707C24.3756 31.9268 24.2822 32.0097 24.2135 32.1117C24.145 32.214 24.1038 32.3321 24.0939 32.4549C24.0839 32.5776 24.1055 32.7008 24.1566 32.8128L25.1789 35.0558C25.0795 35.2358 24.9813 35.4175 24.8859 35.6018L22.4545 35.9973C22.333 36.0172 22.2186 36.0677 22.1221 36.1441C22.0256 36.2206 21.9502 36.3204 21.9031 36.4341C21.856 36.5479 21.8388 36.6718 21.853 36.7941C21.8672 36.9164 21.9124 37.033 21.9844 37.1329L23.4229 39.1309C23.3604 39.3281 23.2996 39.5262 23.2422 39.726L20.9359 40.5883C20.8208 40.6315 20.7185 40.7035 20.6389 40.7973C20.5593 40.8911 20.505 41.0037 20.481 41.1243C20.4571 41.245 20.4643 41.3698 20.502 41.4869C20.5398 41.604 20.6068 41.7095 20.6967 41.7935L22.5008 43.4759C22.4783 43.679 22.4584 43.8835 22.4412 44.0874L20.3418 45.3868C20.2372 45.4516 20.1509 45.542 20.0911 45.6495C20.0312 45.757 19.9999 45.878 20 46.0011C20 46.2518 20.1295 46.4841 20.342 46.6149L22.4412 47.9143C22.4584 48.1188 22.4783 48.3229 22.5008 48.5258L20.6965 50.2088C20.6064 50.2927 20.5393 50.3982 20.5014 50.5153C20.4636 50.6324 20.4563 50.7573 20.4803 50.878C20.5043 50.9987 20.5588 51.1113 20.6385 51.205C20.7183 51.2988 20.8206 51.3706 20.9359 51.4137L23.2422 52.2759C23.2996 52.4756 23.3604 52.6738 23.4229 52.8711L21.9844 54.8693C21.9123 54.9691 21.867 55.0858 21.8527 55.2081C21.8385 55.3305 21.8557 55.4544 21.9029 55.5682C21.9501 55.682 22.0256 55.7818 22.1222 55.8581C22.2189 55.9345 22.3335 55.9848 22.4551 56.0044L24.8861 56.3999C24.9813 56.5843 25.0787 56.7659 25.1791 56.9468L24.1566 59.1889C24.1054 59.3009 24.0838 59.4241 24.0937 59.5469C24.1037 59.6696 24.1449 59.7878 24.2135 59.8901C24.2817 59.9925 24.375 60.0758 24.4846 60.1319C24.5941 60.1881 24.7162 60.2151 24.8393 60.2106L27.3061 60.1242C27.4348 60.2846 27.5643 60.4418 27.6961 60.5981L27.1299 63.0023C27.1015 63.122 27.1044 63.2469 27.1381 63.3652C27.1718 63.4835 27.2353 63.5911 27.3225 63.6779C27.4094 63.7652 27.5173 63.8287 27.6359 63.8623C27.7544 63.8959 27.8796 63.8985 27.9994 63.8699L30.4027 63.3039C30.559 63.4367 30.7172 63.5656 30.8768 63.6925L30.7908 66.161C30.7864 66.284 30.8135 66.4061 30.8696 66.5157C30.9256 66.6253 31.0088 66.7187 31.1112 66.787C31.2135 66.8554 31.3317 66.8964 31.4543 66.9062C31.577 66.916 31.7002 66.8943 31.8121 66.8431L34.0545 65.8214C34.235 65.9217 34.4171 66.0193 34.6006 66.1142L34.9971 68.5448C35.0167 68.6664 35.0671 68.7809 35.1435 68.8775C35.2199 68.9741 35.3198 69.0495 35.4336 69.0965C35.5474 69.1436 35.6712 69.161 35.7936 69.1469C35.9159 69.1327 36.0326 69.0877 36.1326 69.0159L38.1305 67.5764C38.3277 67.6389 38.526 67.7001 38.7256 67.7575L39.5879 70.0629C39.6308 70.1783 39.7026 70.2807 39.7965 70.3605C39.8903 70.4402 40.003 70.4945 40.1238 70.5182C40.2445 70.5425 40.3694 70.5354 40.4865 70.4976C40.6037 70.4598 40.7091 70.3925 40.7928 70.3022L42.4758 68.4979C42.6789 68.5213 42.8832 68.5409 43.0877 68.559L44.3871 70.6582C44.4519 70.7627 44.5423 70.8489 44.6497 70.9087C44.7571 70.9685 44.878 70.9999 45.001 71C45.124 71 45.2449 70.9686 45.3524 70.9088C45.4599 70.8489 45.5504 70.7627 45.6152 70.6582L46.9146 68.559C47.1191 68.5409 47.3232 68.5213 47.5262 68.4979L49.2088 70.3022C49.2924 70.3924 49.3979 70.4597 49.515 70.4975C49.6321 70.5353 49.7569 70.5424 49.8775 70.5182C49.9983 70.4944 50.111 70.44 50.2048 70.3603C50.2986 70.2806 50.3705 70.1782 50.4135 70.0629L51.2758 67.7575C51.4754 67.7001 51.6738 67.6389 51.8711 67.5764L53.8693 69.0159C53.9693 69.0877 54.086 69.1329 54.2083 69.147C54.3306 69.1611 54.4544 69.1437 54.5682 69.0965C54.6819 69.0494 54.7816 68.9739 54.858 68.8773C54.9344 68.7808 54.9848 68.6663 55.0045 68.5448L55.401 66.1142C55.5844 66.019 55.7658 65.9202 55.9469 65.8212L58.1893 66.8431C58.3012 66.8944 58.4244 66.9163 58.5471 66.9066C58.6699 66.8968 58.7881 66.8558 58.8906 66.7874C58.993 66.7191 59.0762 66.6256 59.1322 66.5159C59.1883 66.4063 59.2153 66.2841 59.2107 66.161L59.1248 63.6927C59.2846 63.5656 59.4424 63.436 59.598 63.3039L62.0016 63.8699C62.2457 63.9273 62.5016 63.8562 62.6779 63.6779C62.7651 63.5911 62.8286 63.4835 62.8623 63.3652C62.896 63.2469 62.8989 63.122 62.8705 63.0023L62.3045 60.5981C62.4363 60.4418 62.5662 60.2846 62.6932 60.1242L65.1611 60.2106C65.2841 60.2152 65.4063 60.1882 65.5158 60.1321C65.6254 60.076 65.7188 59.9927 65.7869 59.8903C65.8556 59.7879 65.8969 59.6697 65.9067 59.5468C65.9166 59.424 65.8948 59.3007 65.8434 59.1887L64.8215 56.9469C64.9213 56.7659 65.0193 56.5843 65.1139 56.4001L67.5455 56.0044C67.6671 55.9849 67.7816 55.9345 67.8781 55.858C67.9746 55.7815 68.0499 55.6816 68.0967 55.5677C68.1438 55.454 68.1611 55.3302 68.1469 55.2079C68.1328 55.0857 68.0875 54.9691 68.0156 54.8693L66.5771 52.8712C66.6393 52.6738 66.7 52.4756 66.7578 52.2759L69.0637 51.4137C69.1791 51.3707 69.2816 51.2989 69.3613 51.205C69.441 51.1111 69.4953 50.9984 69.5189 50.8775C69.5433 50.7569 69.5362 50.632 69.4983 50.5149C69.4605 50.3978 69.3932 50.2924 69.3029 50.2088L67.4992 48.5258C67.5211 48.3227 67.5412 48.1184 67.5588 47.9145L69.658 46.6149C69.7627 46.5503 69.849 46.4599 69.9089 46.3525C69.9688 46.245 70.0001 46.1241 70 46.0011C70 45.7509 69.8711 45.5183 69.6584 45.3868ZM55.6092 62.7998C54.8076 62.6269 54.2979 61.8369 54.4699 61.0328C54.6414 60.2297 55.4309 59.7186 56.2322 59.8914C57.0338 60.0631 57.5443 60.8545 57.3725 61.657C57.2006 62.4597 56.4104 62.9714 55.6092 62.7998ZM54.8959 57.9758C54.722 57.9385 54.5424 57.9359 54.3674 57.9681C54.1925 58.0002 54.0256 58.0666 53.8763 58.1633C53.727 58.26 53.5982 58.3852 53.4974 58.5317C53.3965 58.6783 53.3255 58.8432 53.2885 59.0172L52.5432 62.4951C50.2434 63.5388 47.6896 64.1187 45 64.1187C42.2488 64.1187 39.6395 63.5101 37.2988 62.4218L36.5539 58.9442C36.3973 58.2124 35.6777 57.7462 34.9469 57.9032L31.8766 58.5625C31.3059 57.9752 30.7756 57.3501 30.2891 56.6915H45.2285C45.3975 56.6915 45.5102 56.6608 45.5102 56.5069V51.2225C45.5102 51.0687 45.3975 51.0381 45.2283 51.0381H40.8594V47.6885H45.585C46.0162 47.6885 47.8914 47.8116 48.4908 50.2084C48.6787 50.9455 49.0908 53.3431 49.3729 54.1107C49.6537 54.9716 50.7973 56.6913 52.016 56.6913H59.4604C59.5449 56.6913 59.6352 56.6817 59.7303 56.6645C59.2138 57.366 58.6479 58.0298 58.0371 58.6508L54.8961 57.9758H54.8959ZM34.2338 62.7271C33.432 62.9002 32.6428 62.389 32.4703 61.5859C32.2988 60.7814 32.8086 59.9918 33.6102 59.819C34.4119 59.6475 35.2016 60.1586 35.3734 60.9615C35.5449 61.7642 35.0348 62.5552 34.2336 62.7271H34.2338ZM28.5664 39.7471C28.899 40.4975 28.5605 41.3769 27.8111 41.709C27.0617 42.042 26.1846 41.7031 25.8521 40.9521C25.5195 40.2012 25.8578 39.3233 26.6074 38.9903C26.7857 38.9112 26.9778 38.868 27.1728 38.8633C27.3678 38.8585 27.5618 38.8922 27.7438 38.9625C27.9257 39.0328 28.092 39.1382 28.2332 39.2728C28.3743 39.4074 28.4876 39.5685 28.5664 39.7469V39.7471ZM26.8246 43.8759L30.023 42.4546C30.3514 42.3086 30.6083 42.0382 30.7374 41.7028C30.8664 41.3674 30.8571 40.9945 30.7113 40.666L30.0527 39.1766H32.6434V50.8537H27.4166C26.9533 49.2227 26.7189 47.5353 26.7201 45.8397C26.7201 45.1761 26.7559 44.5202 26.8246 43.8757V43.8759ZM40.8602 42.7418V39.2998H47.0293C47.348 39.2998 49.2793 39.6682 49.2793 41.1123C49.2793 42.3113 47.798 42.7412 46.5799 42.7412H40.8602V42.7418ZM63.2805 45.8397C63.2805 46.2964 63.2637 46.7483 63.2303 47.1967H61.3547C61.167 47.1967 61.0914 47.3202 61.0914 47.504V48.3653C61.0914 50.3926 59.9482 50.8336 58.9465 50.9459C57.9926 51.0533 56.9348 50.5465 56.8045 49.9627C56.2416 46.7975 55.3039 46.1216 53.823 44.9534C55.6609 43.7865 57.573 42.0648 57.573 39.7602C57.573 37.2719 55.8672 35.7046 54.7043 34.936C53.073 33.8607 51.2668 33.6451 50.7795 33.6451H31.3826C34.0129 30.7096 37.5777 28.6301 41.6096 27.8735L43.8959 30.2719C44.0186 30.4006 44.1654 30.5039 44.328 30.5758C44.4907 30.6477 44.6659 30.6868 44.8437 30.6909C45.0215 30.695 45.1983 30.664 45.3641 30.5997C45.5298 30.5354 45.6813 30.439 45.8098 30.316L48.368 27.8692C53.7283 28.8672 58.2668 32.2039 60.8822 36.7817L59.1309 40.7373C58.8285 41.4219 59.1371 42.2224 59.8197 42.5257L63.1916 44.0234C63.2498 44.622 63.2805 45.2267 63.2805 45.8397ZM43.8969 25.8331C44.4893 25.2657 45.4289 25.2882 45.9961 25.8813C46.5621 26.4762 46.5406 27.4168 45.9469 27.9838C45.3545 28.5514 44.4148 28.5293 43.8477 27.935C43.5759 27.6495 43.4284 27.2679 43.4377 26.8739C43.4469 26.4798 43.612 26.1055 43.8969 25.8331ZM61.2764 39.8192C61.3552 39.6408 61.4684 39.4797 61.6095 39.3451C61.7506 39.2105 61.9169 39.1051 62.0988 39.0349C62.2808 38.9646 62.4747 38.9309 62.6697 38.9358C62.8646 38.9406 63.0567 38.9838 63.235 39.0629C63.9846 39.3953 64.3228 40.2744 63.9902 41.0248C63.9115 41.2033 63.7983 41.3644 63.6571 41.4991C63.516 41.6337 63.3497 41.7392 63.1677 41.8095C62.9858 41.8798 62.7917 41.9136 62.5967 41.9088C62.4017 41.904 62.2095 41.8608 62.0312 41.7816C61.2826 41.449 60.9443 40.5707 61.2764 39.8192Z" fill="black"/>
</svg>
