<svg width="90" height="92" viewBox="0 0 90 92" fill="none" xmlns="http://www.w3.org/2000/svg">
<rect width="90" height="92" rx="11" fill="#CDDEFF"/>
<path fill-rule="evenodd" clip-rule="evenodd" d="M44.7227 22.0481C44.4127 22.104 44.0399 22.2228 43.7968 22.3432C43.4587 22.5105 25.9842 32.5339 25.6922 32.7279C24.9998 33.188 24.4101 34.0242 24.1136 34.9666L24.0128 35.2869L24.0034 45.9094C23.9949 55.5879 23.9992 56.5571 24.0522 56.8165C24.15 57.2955 24.4088 57.8861 24.7211 58.3427C24.9351 58.6556 25.4366 59.1587 25.7117 59.3365C26.1878 59.6442 43.7651 69.6981 43.9747 69.7826C44.4492 69.9738 44.6328 70 45.4992 70C46.3655 70 46.5492 69.9738 47.0236 69.7826C47.2813 69.6787 65.1474 59.4475 65.4128 59.2518C65.9656 58.8443 66.4656 58.1661 66.7622 57.4215C67.0248 56.7627 67.0053 57.723 66.9949 45.9094L66.9856 35.2869L66.8848 34.9666C66.6142 34.1066 66.0767 33.2997 65.4636 32.833C65.2933 32.7033 47.664 22.5743 47.2202 22.351C46.9727 22.2266 46.5871 22.1052 46.2561 22.0477C45.8894 21.9839 45.0778 21.9842 44.7227 22.0481ZM46.3468 31.8341C48.118 31.904 50.1945 32.4548 51.9108 33.31C54.1224 34.4119 56.0603 36.1107 57.4136 38.1338C57.5969 38.4078 57.7821 38.6912 57.8252 38.7635L57.9034 38.895L57.6239 39.0557C57.4702 39.1441 56.0789 39.9436 54.532 40.8323L51.7195 42.4481L51.4957 42.1134C51.1881 41.6533 50.9135 41.3284 50.4762 40.9069C48.3085 38.8175 45.0684 38.3056 42.3631 39.6251C40.372 40.5962 39.0007 42.3255 38.4799 44.522C38.344 45.0952 38.2925 46.1558 38.3685 46.8168C38.5943 48.7809 39.6529 50.5999 41.2427 51.7557C42.5038 52.6724 43.9136 53.1347 45.4633 53.1395C46.6006 53.1431 47.5648 52.9306 48.5815 52.4524C49.7587 51.8986 50.8395 50.9626 51.514 49.9128C51.602 49.7758 51.6862 49.6501 51.7011 49.6335C51.7208 49.6115 57.0167 52.6161 57.8003 53.094L57.8977 53.1534L57.6569 53.5345C56.4452 55.4527 54.8548 57.0091 52.9177 58.1728C51.0619 59.2876 49.0337 59.9556 46.8074 60.1849C46.1647 60.2511 44.7023 60.2408 44.0118 60.1653C40.155 59.7432 36.7219 57.8763 34.3199 54.8949C32.5823 52.7381 31.5779 50.3178 31.2484 47.4929C31.1768 46.8795 31.1663 45.33 31.2296 44.7172C31.5105 41.998 32.4691 39.5584 34.0948 37.4254C34.8266 36.4652 35.8823 35.417 36.8437 34.696C38.9197 33.1392 41.296 32.1934 43.9043 31.8859C44.3326 31.8354 45.3168 31.7894 45.6425 31.8046C45.7707 31.8106 46.0876 31.8239 46.3468 31.8341ZM58.2226 44.4503V45.2332H59.029H59.8354V46.0161V46.799H59.029H58.2226V47.5819V48.3648H57.4341H56.6456V47.5819V46.799H55.8571H55.0686V46.0161V45.2332H55.8571H56.6456V44.4503V43.6674H57.4341H58.2226V44.4503ZM64.2079 44.4503V45.2332H64.9964H65.7849V46.0161V46.799H64.9964H64.2079V47.5819V48.3648H63.4194H62.6309V47.5819V46.799H61.8424H61.054V46.0161V45.2332H61.8424H62.6309V44.4503V43.6674H63.4194H64.2079V44.4503Z" fill="#2A60C8"/>
</svg>
