<svg width="90" height="92" viewBox="0 0 90 92" fill="none" xmlns="http://www.w3.org/2000/svg">
<rect width="90" height="92" rx="11" fill="#CFE8FF"/>
<path d="M53.7565 43.8927C57.8549 42.0349 58.4657 27.8946 56.0478 23.7298C52.8893 18.2926 37.8755 19.3845 33.1347 23.2709C32.5903 25.2014 32.6473 28.7048 32.6726 31.4898H47.5535V32.7937H32.6758C32.6758 32.8127 26.0519 32.8349 26.0519 32.8349C14.6301 32.8349 14.8675 57.6405 29.9382 57.6405C29.9382 57.6405 30.4921 52.1465 31.4605 49.3931C34.4512 40.8956 47.0155 46.9499 53.7565 43.8927ZM38.1762 29.477C36.4609 29.477 35.0715 28.0877 35.0715 26.3692C35.0715 24.6539 36.4609 23.2614 38.1762 23.2614C39.8947 23.2614 41.284 24.6539 41.284 26.3692C41.2872 28.0845 39.8947 29.477 38.1762 29.477Z" fill="#529DC8"/>
<path d="M59.5228 33.3571C59.5228 33.3571 59.1272 38.8543 58.1588 41.6045C55.168 50.0989 42.607 44.0478 35.8628 47.105C31.7675 48.9627 31.1504 63.103 33.5715 67.2679C36.7268 72.7082 51.7406 71.6163 56.4846 67.7268C57.0289 65.7994 56.972 62.296 56.9466 59.511H42.0626V58.2071H56.9403C56.9403 58.1881 64.2731 58.1659 64.2731 58.1659C74.7993 58.1659 75.7424 33.3571 59.5228 33.3571ZM50.9082 60.9826C52.6235 60.9826 54.016 62.3719 54.016 64.0904C54.016 65.8057 52.6235 67.1951 50.9082 67.1951C49.1929 67.1951 47.8035 65.8057 47.8035 64.0904C47.8035 62.3719 49.1929 60.9826 50.9082 60.9826Z" fill="#529DC8"/>
</svg>
